<svg version="1.1" id="pebble" xmlns="http://www.w3.org/2000/svg" xmlns:xlink="http://www.w3.org/1999/xlink" x="0px" y="0px"
	viewBox="0 0 1024 1024" enable-background="new 0 0 1024 1024" xml:space="preserve">

	<path class="stroke-outer-watch" id="Outer_Watch" fill="none" d="M1001.952,306.476v-99.607H941.08V80.664c0-60.043-61.699-59.183-61.699-59.183
		s-639.166,0-706.956,0c-67.792,0-80.798,59.183-80.798,59.183s0,48.73,0,126.204H30.756v99.607h60.871
		c0,235.194,0,583.163,0,632.212c0,75.537,74.984,70.589,74.984,70.589s650.789,0,706.952,0c56.173,0,67.516-58.969,67.516-58.969
		V807.29h60.871v-99.61H941.08V558.268h60.872v-99.608H941.08V306.478h60.872V306.476z"/>
		
	<path class="stroke-inner-watch" id="Inner_Watch" fill="none" d="M213.376,204.101c0,0,6.917-44.271,55.338-44.271c48.419,0,504.966,0,504.966,0
		s45.656,1.383,45.656,44.271c0,42.889,0,621.181,0,621.181s-9.687,40.115-49.806,40.115c-40.121,0-504.967,0-504.967,0
		s-51.188,5.535-51.188-48.419C213.376,763.021,213.376,204.101,213.376,204.101z"/>
		
	<path class="stroke-e2" id="E2" fill="none" d="M698.685,515.359h72.834c0,0-6.334-35.412-36.418-35.412c-30.082,0-38.916,25.491-38.916,35.412
		c0,9.922,5.833,39.588,37.666,39.588c20.334,0,27.168-10.5,27.168-10.5"/>
		
	<path class="stroke-l" id="L" fill="none" d="M655.815,448.5V533c0,0,3.667,20.5,23.667,20.5"/>
	
	<path class="stroke-b2" id="B2" fill="none" d="M561.735,448.5V516c0,0,3.5,37.5,38.333,37.5s37.667-32,37.667-37.5c0-5.5-6.667-37.5-38-37.5
		c-31.334,0-36.5,27.333-36.5,27.333"/>
		
	<path class="stroke-b1" id="B1" fill="none" d="M468.482,448.5V516c0,0,3.5,37.5,38.333,37.5s37.667-32,37.667-37.5c0-5.5-6.667-37.5-38-37.5
		s-36.5,27.333-36.5,27.333"/>
		
	<path class="stroke-e1" id="E1" fill="none" d="M375.982,513.912h72.833c0,0-6.334-35.413-36.417-35.413s-38.917,25.491-38.917,35.413
		c0,9.92,5.834,39.588,37.667,39.588c20.334,0,27.167-10.5,27.167-10.5"/>
		
	<path class="stroke-p" id="P" fill="none" d="M278.815,586.5v-72.588c0,0,7-35.413,38-35.413s40,26.324,40,35.413c0,9.088-6.5,40.088-39,40.088
		s-39-40.088-39-40.088"/>

</svg>