<?xml version="1.0" encoding="utf-8"?>
<svg viewBox="0 0 416.102 235.173" xmlns="http://www.w3.org/2000/svg">
  <path class='stroke-main' d="M 76.556 46.254 C 79.975 84.188 88.902 120.538 96.285 157.773 C 98.791 170.41 100.026 180.502 102.193 193.176 C 102.913 197.383 105.104 226.651 107.019 230.516" transform="matrix(0.990268, 0.139173, -0.139173, 0.990268, 20.152727, -11.427591)"/>
  <path d="M 14.195 98.766 C 17.589 96.899 18.862 96.172 20.016 95.66 C 29.192 91.587 38.201 86.952 47.192 82.518 C 51.584 80.353 55.85 77.964 60.222 75.759 C 86.766 62.373 113.124 48.763 140.63 37.46 C 150.262 33.503 164.346 25.068 174.879 25.068" transform="matrix(0.960569, 0.27804, -0.27804, 0.960569, 21.200318, -22.990659)"/>
  <path d="M 108.053 177.589 C 112.485 164.179 112.893 153.195 112.893 138.914 C 112.893 137.727 112.159 119.012 112.52 119.012 C 112.678 119.012 113.535 125.736 113.637 126.147 C 114.811 130.883 117.632 145.138 122.572 146.799 C 125.975 147.942 124.79 130.293 127.411 127.649 C 130.07 124.968 133.473 133.064 133.74 134.408 C 133.827 134.848 134.695 137.95 134.857 137.787 C 137.67 134.949 136.891 127.85 140.441 124.269 C 142.442 122.25 146.157 131.913 146.769 132.53 C 147.136 132.9 148.092 128.359 148.258 128.024 C 149.464 125.592 150.129 121.073 152.726 119.764 C 157.888 117.16 160.916 131.752 160.916 134.783" transform="matrix(0.965926, 0.258819, -0.258819, 0.965926, 42.965424, -29.753924)"/>
  <path d="M 124.868 80.392 C 109.993 74.766 113.347 109.661 125.985 96.913 C 127.354 95.533 128.843 93.776 129.708 92.032 C 131.041 89.343 128.219 88.107 128.219 86.4" transform="matrix(0.965926, 0.258819, -0.258819, 0.965926, 27.40597, -28.66091)"/>
  <path d="M 198.603 68.737 C 213.321 85.702 219.261 111.806 224.802 132.768 C 227.406 142.614 231.735 161.682 231.735 171.619" transform="matrix(0.965926, 0.258819, -0.258819, 0.965926, 38.436044, -51.59485)"/>
  <path d="M 183.456 74.391 C 181.876 68.815 188.64 64.054 193.507 61.249 C 207.672 53.085 225.403 48.485 241.529 53.364 C 267.716 61.287 278.417 90.668 280.99 115.319 C 282.472 129.526 279.459 143.144 271.407 157.494 C 264.934 169.03 237.883 190.372 221.852 187.677" transform="matrix(0.965926, 0.258819, -0.258819, 0.965926, 38.758297, -56.168485)"/>
  <path d="M 303.443 155.613 C 296.085 156.437 293.572 164.151 301.21 168.003 C 305.347 170.09 305.349 160.298 304.932 158.616 C 304.596 157.259 302.09 153.872 303.071 154.861 C 304.007 155.806 308.81 163.605 310.515 162.747 C 314.075 160.952 311.26 143.597 311.26 143.597 C 311.26 143.597 315.601 152.484 319.078 150.731 C 321.364 149.578 321.86 143.553 321.311 141.344 C 321.246 141.08 320.643 137.965 320.939 137.965 C 322.69 137.965 324.913 145.603 325.779 146.976 C 332.757 158.036 339.567 172.376 340.297 185.65 C 340.471 188.811 339.58 199.363 334.341 198.041 C 325.314 195.765 324.591 180.418 325.034 173.259 C 326.553 148.753 332.412 126.001 329.129 101.167 C 328.067 93.131 327.044 84.774 324.29 77.136 C 323.766 75.682 321.665 68.697 318.333 70.377 C 311.336 73.907 313.121 91.025 313.494 96.661 C 314.642 114.028 322.144 146.365 343.648 149.981 C 348.42 150.782 349.139 144.015 349.604 140.968 C 350.775 133.292 351.041 114.657 342.903 110.554 C 341.539 109.866 341.268 117.252 341.414 118.063 C 342.244 122.666 346.382 135.209 353.327 133.459 C 359.361 131.938 355.933 121.163 355.933 117.313 C 355.933 115.965 358.388 119.241 359.655 118.815 C 361.775 118.102 363.271 114.697 364.123 112.807 C 365.153 110.521 365.869 107.756 366.356 105.297 C 366.604 104.046 366.205 100.64 367.101 101.543 C 369.697 104.161 369.967 113.106 370.824 116.562 C 373.7 128.168 378.413 139.379 379.013 151.482 C 379.243 156.105 378.201 170.714 369.707 168.378 C 360.707 165.902 361.57 150.733 363.006 143.972 C 367.908 120.898 379.42 98.093 389.809 77.136" transform="matrix(0.87462, 0.484809, -0.484809, 0.87462, 108.05933, -149.562067)"/>
</svg>