<svg version="1.1" xmlns="http://www.w3.org/2000/svg" xmlns:xlink="http://www.w3.org/1999/xlink" x="0px" y="0px"
	 width="100%" height="100%" viewBox="0 0 1408 710" enable-background="new 0 0 1408 710" xml:space="preserve">
<path d="M1397.53,72.02c-2.04-10.13-1.71-21.03-6.69-30.34c-3.99-1.11-8.18,0.51-11.729,2.31c-3.05,1.65-6.55,2.57-9.16,4.94
	c-2.511,1.93-1.9,5.67-0.851,8.24c2.811,6.24,3.66,13.11,6.061,19.49c2.12,7.43,5.05,14.74,5.5,22.54
	c0.59,6.57,2.62,13.16,1.26,19.77c-0.859,9.02-1.08,18.12-2.57,27.08c-1.069,6.14-1.449,12.52-3.91,18.31
	c-2.209,5.45-3.8,11.2-7.06,16.16c-4.77,9-9.479,18.05-13.36,27.47c-2.85,5.12-5.89,10.13-8.8,15.21
	c-4.17,6.29-7.189,13.25-11.6,19.39c-5.7,8.07-10.06,17.02-16.39,24.65c-7.23,10.35-15.961,19.55-22.841,30.14
	c-4.819,6.75-11.229,12.12-16.689,18.311c-6.431,6.39-11.4,13.989-16.92,21.13c-11.47,14.83-21.33,30.989-34.79,44.18
	c-2.62,2.29-4.33,5.77-7.69,7.08c-2.76-13.69-5.85-27.34-9.47-40.84c-2.78-9.49-4.13-19.38-4.54-29.25
	c-0.601-5.03,2.479-9.69,1.44-14.72c-0.58-5.16-9.681-4.99-10.19,0.14c-0.11,4.64-0.12,9.43-2.34,13.66
	c-4.55,9.14-9.23,18.229-13.71,27.41c-2.7,5.93-9.41,10.26-15.98,8.979c-5.1-1.96-6.939-7.67-9.449-12.02
	c-1.851,0.149-3.99-0.41-5.4,1.09c-3.84,3-3.4,8.39-6.04,12.16c-4.07,6.18-6.36,13.8-12.67,18.229c-4.101,2.59-8.4,4.87-12.54,7.39
	c-2.38,1.21-4.65,3.061-7.42,3.08c-2.33-0.68-5.42-2.159-4.771-5.1c1.841-5.46,5.95-9.8,7.851-15.25
	c2.85-6.98,3.569-14.59,3.77-22.05c0.29-7.971-3.82-15.92-10.42-20.36c-3.38-0.939-7.25-1.31-10.39,0.53
	c-4.891,3.47-7.07,9.52-8.62,15.07c-0.58,10.199,0.93,20.39,0.939,30.6c0.9,4.54,2.82,8.84,4.15,13.28
	c-1.78,5.279-7.43,9.68-13.14,8.37c-3.171-0.771-5.49-3.32-6.71-6.24c-3.461-5.91-5.771-12.36-8.011-18.8
	c-0.409-1.271-0.359-2.65-0.01-3.91c7.91-19.28,17.49-37.88,24.58-57.5c5.101-17.61,9.19-35.5,13.38-53.35
	c1.57-5.45,4.4-10.41,6.19-15.78c2.819-7.31,4.21-15.05,5.46-22.75c1.88-8.7,3.55-17.47,6.14-26c0.86-2.93,1.931-5.86,2.04-8.95
	c0.22-5.13,1.28-10.18,1.11-15.33c-0.19-6.28,0.93-12.46,1.09-18.71c1.62-13.99,2.38-28.07,1.81-42.16
	c0.561-11.18-0.96-22.29-3.33-33.19c-1.699-7.2-5.76-13.47-8.89-20.07c-5.149-8.9-11.5-17.04-17.74-25.18
	c-1.409-2.28-1.569-5.48-3.96-7.05c-1.99-0.479-4.1-0.43-6.09-0.08c-2.66,0.95-3.75,3.8-5.1,6.01c-3.83,6.53-5.4,13.99-7.95,21.04
	c-2.44,6.75-3.11,13.95-4.69,20.92c-1.24,5.54-1.869,11.19-2.74,16.8c-1.3,14.06-4.819,27.81-6.56,41.81
	c-0.89,10.1-3.399,19.95-4.479,30.02c-2.59,18.01-4.221,36.16-7.34,54.09c-0.25,6.16-0.671,12.32-1.23,18.46
	c-2.09,12.03-3.98,24.17-4.05,36.41c-0.2,7.01,0.84,13.99,0.51,21c-0.31,7.35,0.53,14.67,0.521,22.02
	c0.399,8.34-1.28,16.67-0.261,25c0.45,3.721,0.061,7.54,1.03,11.2c1.58,6.25,1.98,12.92,5.14,18.67c1.17,2.3,2.71,5.62,0.44,7.771
	c-5.46,6.159-10.08,13.01-15.37,19.3c-1.74-6.53-4.16-13.07-3.92-19.91c-0.03-4.63,0.67-9.3-0.13-13.89
	c-1.93-2.42-6.2-2.45-7.46,0.649c-1.841,5.08-2.45,10.55-4.55,15.561c-2.271,5.109-4.011,10.71-8.181,14.67
	c-4.35,4.43-9.069,10.27-16,9.66c-4.63,0.649-7.34-3.851-9.569-7.12c-1.561-2.71-4.61-5.11-7.881-3.971
	c-4.08,2.65-5.199,7.75-7.239,11.86c-1.921,5.28-5.7,9.5-8.9,14c-3.04,4.5-6.64,8.82-11.29,11.7c-2.06,0.76-4.88,0.99-6.25-1.09
	c-4.97-4.5-6.28-11.771-4.76-18.09c1.45-10.37,0.25-21.08-3.34-30.891c-0.58-1.13-1.771-1.859-3.03-1.729
	c-4.32-0.63-5.33,4.79-6.13,7.93c-0.11,7.53,2.91,14.979,1.31,22.55c-1,4.03-2.739,7.87-4.71,11.51
	c-6.439,7.78-14.12,14.82-23.35,19.101c-3.67-0.3-7.521-2.7-9.13-6.12c-0.431-2.811-0.561-5.75,0.25-8.51
	c1.63-6.65,4.27-13.08,8.08-18.78c1.909-3.08,5.34-5.18,8.939-5.57c5.91-0.29,6.97,8.66,12.95,8.13c4.77,0.53,7.1-5.569,4.5-9.04
	c-2.66-3.85-5.4-8.949-10.67-9.229c-5.5-0.21-12.08-1.1-16.43,3.05c-5,5.17-10.271,10.58-12.46,17.62
	c-2.261,7.14-5.96,14.34-4.23,22.05c1.79,11.101,15.14,17.38,25.271,13.851c5.699-3.381,10.92-7.65,15.329-12.61
	c2.921-3.3,6.521-5.89,9.521-9.11c1.16,6.29,5.229,12.73,11.75,14.391c6.29,2.38,13.66,0.04,17.76-5.2
	c6.9-8.86,12.54-18.61,18.471-28.12c1.81,1.4,3.34,3.24,5.39,4.32c5.61,2.14,11.86,2.55,17.729,1.39
	c10.721-3.64,16.94-13.85,22.15-23.22c1.439,4.74,1.88,9.71,3.439,14.42c0.74,2.09-1.13,3.689-2.149,5.28
	c-2.96,3.67-6.23,7.09-9.01,10.909c-5.28,6.141-9.141,13.391-14.841,19.181c-7.569,8.439-17.26,14.729-24.33,23.649
	c-6.949,8.67-15.6,15.771-22.859,24.16c-10.35,10.99-20.83,21.851-30.93,33.07c-8.95,9.149-15.681,20.21-21.54,31.52
	c-3.141,5.851-2.681,12.67-4.21,18.96c-1.181,6.051-3.12,11.96-3.61,18.13c-1.06,6.49,0.29,13.021,0.8,19.5
	c2.28,7.91,3.9,16.03,6.93,23.711c1.891,6.979,3.79,13.989,6.33,20.77c2.391,5.18,7.87,7.69,12.631,10.22
	c6.409,2.98,12.989,6.46,20.25,6.41c5.67,0.101,11.34,0.04,17.01,0.05c12.649,0.181,25.24-2.33,37.199-6.33
	c8.791-4.17,18.041-8.109,24.961-15.199c4.81-4.881,7.5-11.28,10.64-17.261c4.1-7.51,5.8-15.989,9.1-23.83
	c4.921-11.18,4.55-23.64,6.4-35.5c0.07-6.55,1.36-13.01,1.149-19.56c-0.029-11.35-0.05-22.7-0.199-34.05
	c-1.17-11.28-0.23-22.67-1.51-33.94c-0.341-23.29-1.91-46.819-8.351-69.319c-0.99-3.16,1.38-5.851,2.94-8.32
	c4.67-6.74,8.99-13.74,14.06-20.19c0.28,0.08,0.851,0.23,1.13,0.301c3.78,5.6,6.051,12.239,10.91,17.069
	c3.55,4.21,8.83,7.561,14.52,7.22c2.98-0.119,6.211,0.45,8.98-0.989c3.29-1.46,6.07-3.83,8.41-6.54
	c2.13,1.069,4.28,2.359,6.74,2.439c8.47,0.59,16.869-2.26,24.029-6.64c4.11-2.44,6.511-6.771,10.04-9.87
	c5.36-4.92,8.94-11.31,12.86-17.34c5.28,2.67,10.86,5.36,16.96,5.04c6.8,0.75,14.17-2.03,18.06-7.811
	c3.82-7.699,8.5-15.01,11.24-23.22c2.69,11.71,5.11,23.48,7.54,35.25c2.2,9.95,3.17,20.13,5.74,30
	c-4.08,6.88-12.17,9.351-17.18,15.28c-4.9,4.82-8.641,10.66-13.341,15.62c-12.489,9.34-24.109,19.92-34.039,31.979
	c-5.851,7.45-13.5,13.15-19.851,20.11c-9.01,11.45-18.49,23.09-22.99,37.17c-4.26,9.88-5.359,20.64-7.649,31.05
	c-2.051,12.79-2.48,25.82-1.721,38.74c1.74,9.4,3.681,18.79,6.211,28.02c1.979,6.591,5.52,12.551,8.3,18.82
	c5.319,9.59,12.479,17.96,19.479,26.34c4.38,4.94,8.87,9.84,14.07,13.95c2.99,2.43,5.62,5.46,9.33,6.86
	c4.1,1.66,8.229,3.88,12.79,3.739c3.26-0.17,6.819,0.561,9.83-1.079c4.14-1.921,7-5.591,10.21-8.7
	c6.1-5.931,11.66-12.4,16.79-19.181c6.87-8.359,12.439-17.81,16.21-27.97c2.02-5.68,5.06-11.04,6.01-17.04
	c2.65-13.38,4.63-26.88,6.76-40.34c1.41-8.41,2.021-16.93,1.75-25.45c-0.31-15.01,0.391-30.069-0.93-45.02
	c-0.55-17.23-2.17-34.391-4.78-51.44c-0.6-5.79-0.7-11.64-1.72-17.39c-1.641-9.74-2.49-19.63-4.65-29.271
	c-0.5-1.819,1.131-3.109,2.12-4.38c3.99-4.31,8.271-8.37,12.311-12.64c5.909-5.87,10.229-13.07,15.71-19.311
	c6.859-7.869,12.949-16.359,19.58-24.409c12.33-15.261,25.56-29.771,38.77-44.26c17.83-23.32,34.63-47.4,51.71-71.27
	c2.31-3.2,3.75-6.88,5.41-10.42c4.74-9.64,9.47-19.28,14.16-28.94c4.85-9.09,6.89-19.27,10.13-28.97c2.71-11.87,6.689-23.68,6.31-36
	c0.75-9.07,1.091-18.18,0.98-27.3C1398.48,86.66,1399.23,79.23,1397.53,72.02z M1040.33,442.28c0.52,13.58,1.07,27.16,1.31,40.739
	c-0.01,12.66,1.061,25.28,1.07,37.931c-0.08,4.03,0.44,8.03,0.53,12.05c-0.84,12.13-1.32,24.34-3.73,36.29
	c-1.39,12.16-6.01,23.54-10.39,34.87c-2.61,6.8-6.521,13.13-11.74,18.229c-9.03,9.42-19.54,18.17-32.18,22.12
	c-9.72,2.57-19.78,5.25-29.91,3.83c-6.22-1.12-12.59-1.45-18.7-3.12c-4.54-1.319-8.6-3.81-12.67-6.12c-3.5-2-7-4.5-8.72-8.25
	c-4.03-8.159-5.53-17.229-7.66-25.989c-2.35-11.46-2.07-23.23-2.69-34.86c0.681-7.91,2.931-15.56,5.141-23.15
	c0.92-3.05,2.83-5.64,4.42-8.35c3.7-6.08,6.63-12.6,10.689-18.46c8.08-10.78,17.061-20.84,26.2-30.73
	c8.061-9.579,17.62-17.72,26.24-26.76c18.229-18.17,35.479-37.31,52.51-56.58c0.771-1.06,2.22-0.68,3.34-0.859
	C1036.4,417.35,1038.55,429.8,1040.33,442.28z M1054.52,338.03c0.24-10.69-0.63-21.37-0.14-32.05c0.13-15,0.99-29.98,0.79-44.98
	c0.23-5.01-0.689-10.01-0.08-15c0.92-15.67,1.24-31.38,2.87-46.99c1.59-12.03,2.94-24.07,3.86-36.16c3-18.62,3.979-37.55,8.21-55.97
	c2.239-8.01,2.22-16.41,3.659-24.56c2.15-10.94,3.16-22.17,6.891-32.74c2.26-7.46,5.03-14.83,8.64-21.74
	c3.011,0.49,4.9,3.02,6.841,5.13c4.39,5.03,7.729,10.87,12.069,15.95c6.62,8.07,7.83,18.75,10.25,28.54
	c3.78,14.62,1.76,29.83,1.25,44.7c-0.17,8.65-1.069,17.25-1.28,25.9c0.021,5.09-2.279,9.83-2.439,14.9
	c-0.2,10.02-2.561,19.84-5.4,29.39c-1.5,6.29-2.529,12.68-4.18,18.94c-1.58,5.32-1.63,10.98-3.72,16.17
	c-1.79,7.23-6.05,13.59-7.53,20.91c-3.74,16.89-7.84,33.7-12.62,50.33c-4.26,12.27-9.56,24.13-15.14,35.84
	c-2.391,5.72-5.33,11.19-8.79,16.33C1055.43,347.32,1055.28,342.43,1054.52,338.03z M1105.07,362.15
	c-1.59,2.72-2.75,5.64-3.74,8.619c-0.86-0.1-1.7-0.199-2.52-0.289c-1.99-8.7-3.36-17.591-3.261-26.54
	c-0.09-3.75,1.761-7.131,3.48-10.341c4.689-0.199,6.78,4.881,8.42,8.46C1108.11,348.76,1108.45,356.06,1105.07,362.15z
	 M1222.23,457.07c0.869,27.01,3.75,53.92,4.09,80.93c0.51,10.42-1.681,20.71-2.29,31.08c-1.48,12.47-1.521,25.16-4.761,37.36
	c-0.949,8.34-5.3,15.609-8.67,23.13c-5.01,9.609-10.42,19.17-18,27.02c-6.039,6.271-12.33,12.37-19.229,17.71
	c-4.71,2.86-10.81,2.95-15.97,1.311c-4.78-2.2-9.021-5.58-12.32-9.67c-5.5-6.49-11.05-12.94-17.02-18.99
	c-4.521-4.47-6.94-10.44-10.28-15.74c-6.391-10.5-10.561-22.11-13.96-33.87c-2.181-5.51-2.07-11.5-2.69-17.3
	c-1.02-7.35,0.65-14.7,1.08-22.04c0.24-7.2,2.18-14.16,3.8-21.12c3.141-7.59,6.04-15.38,10.601-22.27
	c3.649-5.71,6.87-11.69,10.659-17.311c7.08-8.92,14.261-17.74,21.48-26.54c5.15-5.85,9.66-12.31,15.52-17.5
	c6.211-5.79,12.061-11.97,18.58-17.42c10.24-9.1,19.48-19.28,29.61-28.47c0.96-0.811,2.57-0.03,2.9,1.12
	c1.2,2.31,1.25,4.96,1.729,7.47C1218.75,429.67,1220.61,443.36,1222.23,457.07z"/>
<path d="M905.5,218.95c-0.66-8.95-0.37-18.05-2.63-26.81c-1.561-9.21-3.54-18.39-6.91-27.12c-4.84-11.3-9.38-23.03-17.51-32.44
	c-11.47-12.54-23.97-24.11-36.97-35.03c-11.33-7.78-22.73-15.48-34.53-22.51c-8.82-5.52-18.44-9.58-27.54-14.58
	c-6.82-3.19-13.21-7.4-20.48-9.57c-6.189-1.92-11.979-5.01-18.359-6.32c-9.82-2.27-19.46-5.61-29.57-6.3
	c-14.99-2.77-29.94,2.76-43.06,9.6c-13.53,5-27.12,9.86-40.37,15.59c-12.87,4.59-24.08,12.55-35.92,19.18
	c-19.91,10.47-36.681,25.75-52.811,41.19c-5.6,7.46-12.32,14.79-14.63,24.05c5.06,1.64,10.33,2.39,15.6,3.01
	c3.761-6.99,6.801-14.37,10.82-21.22c5.55-6.44,12.23-11.8,17.95-18.09c3.82-4.24,8.62-7.39,12.87-11.16
	c9.24-8.02,19.859-14.16,29.96-21c6.229-4.59,13.68-7.03,20.6-10.35c16.45-5.84,32.62-12.54,49.49-17.09
	c7.05-1.27,14.19-3.23,21.4-1.86c10.239,0.91,20.06,3.96,30.06,6.15c7.51,2.29,14.85,5.08,22.26,7.67
	c5.221,1.54,9.82,4.54,14.48,7.28c18.25,10.53,36.93,20.51,53.74,33.32c7.119,5.4,15.14,9.44,22.449,14.55
	c5.66,4.64,10.53,10.17,15.721,15.32c8.949,11.03,17.21,22.75,23.34,35.6c3.66,10.9,5.09,22.39,8.38,33.4
	c0.37,3.52,0.43,7.08,0.99,10.59c0.569,20.09,1.199,40.56-3.92,60.16c-2,8.29-2.74,16.82-5.29,24.97
	c-3.71,17.51-9.24,34.59-15.45,51.36c-2.601,7.979-5.22,15.979-8.3,23.79c-6.69,12.569-13.95,24.84-21,37.22
	c-2.04,4.09-6.2,6.49-8.44,10.45c-3.439,5.75-9.15,9.56-12.96,15.01c-9.16,9.19-18.85,17.84-28.6,26.39
	c-6.551,5.08-13.141,10.301-20.99,13.221c-4.82,2.72-10.561,1.319-15.63,3.189c-5.311,2.021-10.641,3.95-16.01,5.8
	c-8.961,0.41-17.74,2.82-26.74,2.71c-5.67,0.061-11.36,0.431-17.021-0.01c-11.95-1.6-23.97-2.5-35.97-3.68
	c-10.99,0.5-22,0.7-33.01,0.87c-7.51,0.47-15.32,0.149-22.45,2.96c-4.61,1.88-9.4,3.57-13.38,6.67c-3.9,3.17-8.03,6.689-9.22,11.83
	c-1.761,3.37,0,7.7,3.239,9.39c2.04,0.94,3.79-0.819,5.391-1.84c3.62-2.54,2.479-8.19,6.479-10.46c8.28-5.37,18.38-6.33,27.95-7.38
	c16.33,0.12,32.66,0.36,49,0.22c8.73-0.33,17.27,2.24,26,2.01c8.64,0.33,17.29-0.17,25.92-0.81c6.29-1.09,12.34-3.271,18.64-4.38
	c11.551-1.74,22.421-6.19,33.58-9.43c7.82-2.051,14.63-6.521,21.641-10.351c5.33-4,10.92-7.75,15.739-12.37
	c7.57-9.09,15.29-18.08,22.73-27.279c8.18-11.811,16.44-23.57,24.5-35.471c5.03-8.96,11.72-17.09,14.97-26.96
	c3.17-8.729,7.13-17.16,10.09-25.96c1.671-7.89,3.171-15.81,4.49-23.76c1.82-12.271,5.74-24.09,8.51-36.14
	c1.19-9.32,3.021-18.58,3.37-27.98c0.16-4.68,1.34-9.26,1.5-13.94C903.98,235.63,906.17,227.38,905.5,218.95z"/>
<path d="M197.7,43.55c3.27-1.14,6.44,1.05,9.21,2.54c2.08,1.24,1.61,3.86,1.8,5.91c0.26,3.07-0.47,6.06-1.13,9.03
	c-0.58,5.58,0.43,11.16,0.79,16.72c0.09,7.39,1.29,14.7,1.29,22.1c1.72-0.22,3.43-0.45,5.13-0.82
	c61.13-13.25,122.29-26.42,183.44-39.59c3.369-0.7,6.739-1.83,10.22-1.67c5.13,0.92,4.66,9.23-0.01,10.46
	c-30.73,6.22-61.42,12.63-92.19,18.66c-29.67,6.48-59.36,12.89-89.09,19.14c-5.53,1.39-11.19,2.21-16.65,3.88
	c1.38,32.75,4.4,65.41,6.34,98.13c1.47,20.29,2.86,40.58,4.1,60.87c1.05,5.64,0.2,11.44,1.35,17.08
	c0.18,8.26,1.31,16.43,1.42,24.689c1.06,5.79,0.5,11.71,1.39,17.521c4.04,60.28,8.25,120.609,12.88,180.8
	c0.99,6.72-0.16,13.59,1.2,20.28c1.53,24.899,3.34,49.79,5.06,74.689c1.25,24.03,3.53,47.99,4.55,72.03
	c-0.31,3.38,0.94,7.5-1.51,10.29c-2.14,0.78-4.46,0.25-6.67,0.2c-2.86-2.8-2.06-6.9-2.67-10.48c-3.07-44.31-6.5-88.62-9.64-132.95
	c-0.01-7.699-1.36-15.3-1.76-22.979c-6.4-89.67-13.06-179.4-19.63-269.08c-3.28-45.99-6.5-92.01-10.2-137.99
	c-3.46,0.3-6.86,0.97-10.24,1.7c-44.43,9.26-88.93,18.1-133.34,27.42c-10.32,3.35-20.1,8.21-30.32,11.86
	c-2.22,1.07-4.26-0.85-6.07-1.93c-1.45-0.72-0.71-2.54-0.66-3.76c0.89-6.56,1.71-13.13,2.46-19.7c4.67-1.55,9.66-1.67,14.5-2.32
	c39.7-5.14,79.41-10.28,119.11-15.31c14.95-1.34,29.45-5.33,44.18-7.98c-0.79-18.02-2.2-36.021-2.17-54.07
	C193.92,46.52,195.95,44.82,197.7,43.55z"/>
<path d="M607.38,115.02c4.44,1.9,9.45,5.07,10.11,10.32c0.45,3.56-0.04,7.16,0.25,10.74c1.43,8.95,5.1,17.32,7.279,26.08
	c5.921,21.12,11.48,42.34,17.341,63.47c3.92,14.23,7.949,28.43,11.42,42.78c12.279,42.609,21.5,86.02,31.85,129.13
	c4.44,18.7,8.53,37.479,12.73,56.24c0.25,1.52,0.399,3.06,0.55,4.6c-5.26-0.5-12.51-0.58-14.51-6.62
	c-4.7-19.069-9.2-38.18-14.08-57.2c-4.79-21.06-9.011-42.239-13.94-63.27c-7.14-32.09-13.99-64.24-21.62-96.22
	c-2.89-13.24-5.1-26.61-8.01-39.85c-5.14-20.44-10.05-40.96-15.79-61.24c-1.68-4.11-4.27-7.75-6.17-11.74
	C603.44,119.47,606.14,117.22,607.38,115.02z"/>
<path d="M298.05,181.02c2.45-1.81,4.41-5.27,7.93-4.59c2.13-0.01,3.62,1.91,4.48,3.65c-0.49,4.61-4.19,8.04-7.59,10.83
	c-3.1,2.44-4.78,7.2-2.48,10.73c1.98,4.44,6.88,6.73,11.53,6.97c1.96,0.21,4.24-1.64,3.79-3.73c-0.43-4.14-0.75-8.81,1.97-12.3
	c0.79-1.48,2.59-1.23,4-1.51c2.09,3.07,4.02,6.28,5.51,9.69c1.24,5.42,0.72,11.82-3.71,15.72c-5.07,4.14-12.11,4.55-18.38,3.97
	c-6.85-1.21-13.6-5.88-15.32-12.92C287.69,198.21,289.86,186.82,298.05,181.02z"/>
<path d="M307.46,291.25c0.48-4.21,6.77-4.72,8.93-1.56c0.76,4.4-0.01,8.9,0.09,13.34c0.27,6.041-1.75,11.911-1.17,17.96
	c0.04,11.319,0.97,22.59,1.19,33.91c0.57,4.38,1.77,8.649,2.58,13c3.73-5.24,6.11-11.311,7.51-17.561
	c2.88-8.88,3.87-18.18,5.51-27.33c2.7-10.87,7.04-21.77,14.92-29.95c2.38-1.85,5.08-4.56,8.39-3.45c2.62,1.88,3.61,5.26,5.12,8
	c3.95,7.59,2.88,16.34,4.09,24.53c-0.07,6.96,0.95,13.91,0.22,20.87c0.05,3.74,0.54,7.471,0.73,11.221
	c4.31-9.65,7.02-20.021,12.49-29.141c2.41-3.979,4.4-8.22,6.92-12.13c2.05-1.06,4.47-0.58,6.69-0.71c2.48,3,4.91,6.25,5.83,10.1
	c1.56,8.141,1.53,16.48,2.47,24.69c6.4-12.69,12.11-25.75,18.57-38.41c3.44-6.91,10.81-11.43,18.53-11.32
	c4.35,3.99,5.25,9.99,5.26,15.6c1.11,9.35,0.76,18.78,0.4,28.17c-0.25,6.33-1.561,12.59-1.4,18.939c0.21,5.36,0.76,10.7,0.979,16.07
	c1.19,14.09,0.7,28.271,1.921,42.36c1.39,13.3,0.05,26.85,2.989,39.979c1.061,11.13,2.33,22.4,6.391,32.91
	c2.159,5.34,3.029,11.17,5.84,16.271c4.83,9.3,9.31,18.87,15.569,27.319c3.08,2.12,6.79,3.03,10.29,4.221
	c-0.13,3.31,0.921,7.069-1.22,9.939c-2.56,3.96-7.76,4.58-12.07,4.311c-9.819-10.33-15.119-23.801-20.5-36.75
	c-1.59-4.771-4.46-9.12-5.09-14.19c-0.609-4.07-1.739-8.03-2.939-11.95c-2.2-8.34-2.09-17.02-2.94-25.55
	c-1.31-16.32-4.29-32.54-3.89-48.97c1.05-11.71,1.42-23.59-0.021-35.28c-0.109-10.24-0.55-20.5-0.109-30.729
	c1.85-13.73,1.149-27.711-0.271-41.431c-0.55-0.76-1.13-1.49-1.729-2.189c-1.61,0.18-3.511,0.069-4.49,1.63
	c-2.85,3.569-5.72,7.2-7.87,11.229c-3.11,8.33-7.34,16.181-10.39,24.53c-3.13,8.17-6.771,16.2-8.891,24.72
	c-0.649,2.311,0.12,4.99-1.399,7.03c-2.61,1.85-6.16-0.09-6.76-3.01c-0.58-4.13-0.36-8.33-0.4-12.48
	c0.28-7.069-1.47-14.01-1.12-21.08c-0.93-6.26-0.73-13.069-4.4-18.51c-3.54,3.53-5.44,8.25-7.84,12.55
	c-2.15,3.88-3.7,8.061-4.99,12.3c-2.58,7.511-5.64,14.86-8.41,22.301c-1.28,3.47-3.04,6.77-5.55,9.52
	c-1.19-1.14-2.55-2.229-2.98-3.899c-1.88-6.57-1.26-13.49-2.22-20.2c-0.79-9.91,0.18-19.891-0.68-29.79
	c-0.82-3.34-0.38-6.811-0.95-10.17c-1.11-3.67-1.76-7.48-3.12-11.08c-4.46,5.13-6.86,11.6-9.35,17.83
	c-1.09,2.63-1.55,5.46-1.87,8.279c-1.03,11.421-4.22,22.5-7.54,33.431c-3.03,6.74-6.81,13.13-10.16,19.71
	c-1.18,2.6-5.08,4.55-7.28,2.02c-4.93-7.72-6.54-16.88-8.74-25.62c-2.39,3.37-3.37,7.45-3.91,11.49c-1.1,8.11-3.3,16.01-5.01,24
	c-3.31,14.67-6.59,29.34-9.87,44.021c-0.31,5.239,0.72,10.529-0.23,15.75c-0.27,2.109-2.54,2.8-4.24,3.439
	c-4.55,0.25-6.37-4.49-8.63-7.54c-1.69-2.819-4.63-5.27-4.77-8.74c1.48-5.21,6.66-8.3,8.06-13.52c2.14-7.47,3.82-15.06,6.14-22.47
	c2.05-6.58,4.27-13.12,5.56-19.91c4.15-17.83,8.93-35.521,13.5-53.25c1.2-7.61,2.4-15.23,3.28-22.89
	C306.75,302.41,306.96,296.81,307.46,291.25z"/>
</svg>
